PathFileType	4	(X/Y/Z)	D:\telocate\uwb07-Unnamed.trc
DataRate	CameraRate	NumFrames	NumMarkers	Units	OrigDataRate	OrigDataStartFrame	OrigNumFrames
100.00	100.00	     168	0	mm	100.00	20256	     23149
Frame#	Time	
		

20256	202.550	2188.37817	799.95685	1972.57532	
20257	202.560	2183.75049	811.41254	1979.17322	
20258	202.570	2178.26270	821.70837	1984.62708	
20259	202.580	2171.80298	832.72113	1989.43530	
20260	202.590	2166.31665	843.10474	1994.18494	
20261	202.600	2159.44873	853.07904	1999.17566	
20262	202.610	2153.65991	863.36206	2004.75928	
20263	202.620	2146.55225	873.40765	2009.17920	
20264	202.630	2141.13306	882.98126	2013.88818	
20265	202.640	2134.18604	892.70526	2018.60498	
20266	202.650	2126.98779	903.00696	2023.20020	
20267	202.660	2120.74536	912.55054	2028.51843	
20268	202.670	2114.15161	922.36682	2033.32300	
20269	202.680	2108.50049	931.55011	2038.36316	
20270	202.690	2101.81372	941.80621	2042.90100	
20271	202.700	2094.58740	951.15625	2047.60962	
20272	202.710	2087.71777	960.46167	2052.65479	
20273	202.720	2080.47217	969.48627	2057.13086	
20274	202.730	2072.70850	978.25922	2061.84082	
20275	202.740	2062.64209	986.16064	2066.32129	
20276	202.750	2058.20166	996.20007	2071.27783	
20277	202.760	2047.85547	1004.97137	2075.34009	
20278	202.770	2044.39380	1014.51062	2080.15967	
20279	202.780	2036.01953	1023.57990	2084.46216	
20280	202.790	2027.75684	1031.87341	2088.86060	
20281	202.800	2019.61523	1040.70471	2092.86060	
20282	202.810	2010.42578	1049.09448	2096.47388	
20283	202.820	2001.79297	1057.95642	2100.62720	
20284	202.830	1990.52722	1066.18250	2104.50317	
20285	202.840	1982.52148	1074.90857	2108.24146	
20286	202.850	1970.78687	1082.71033	2111.94336	
20287	202.860	1965.78809	1092.03284	2114.98511	
20288	202.870	1957.03528	1099.75793	2118.73779	
20289	202.880	1947.85669	1108.09570	2122.37280	
20290	202.890	1936.40515	1115.98584	2125.59351	
20291	202.900	1923.73413	1123.42529	2128.13477	
20292	202.910	1914.67981	1131.43420	2131.21777	
20293	202.920	1903.30859	1139.23767	2134.15796	
20294	202.930	1895.77954	1147.23499	2136.76196	
20295	202.940	1885.00171	1154.96631	2139.53638	
20296	202.950	1875.28601	1162.33521	2142.20190	
20297	202.960	1863.94080	1169.22339	2144.95459	
20298	202.970	1851.91931	1176.38403	2147.49414	
20299	202.980	1839.57239	1183.55640	2150.31152	
20300	202.990	1828.23291	1190.53821	2152.50806	
20301	203.000	1817.63794	1197.59924	2155.05127	
20302	203.010	1807.69690	1204.54541	2158.01172	
20303	203.020	1797.12622	1211.05066	2160.74121	
20304	203.030	1784.39563	1217.26025	2163.43042	
20305	203.040	1771.20935	1222.61646	2166.47485	
20306	203.050	1761.12268	1228.85425	2169.44702	
20307	203.060	1749.72339	1234.47192	2172.29590	
20308	203.070	1739.41980	1240.13171	2175.28662	
20309	203.080	1724.12842	1244.97253	2178.50464	
20310	203.090	1712.71484	1249.75183	2182.09375	
20311	203.100	1701.93140	1255.05750	2185.63647	
20312	203.110	1690.25427	1258.97656	2189.36230	
20313	203.120	1674.85168	1262.71765	2192.61694	
20314	203.130	1663.92847	1266.65784	2196.14746	
20315	203.140	1652.13452	1270.85693	2200.38770	
20316	203.150	1640.89111	1274.25037	2204.16992	
20317	203.160	1624.72986	1277.00012	2208.04443	
20318	203.170	1613.85596	1280.32544	2211.92871	
20319	203.180	1601.41553	1283.28979	2216.28857	
20320	203.190	1588.02002	1285.70129	2220.54907	
20321	203.200	1573.25415	1288.26685	2224.33740	
20322	203.210	1562.25586	1290.72998	2228.79175	
20323	203.220	1550.16968	1292.72949	2232.99658	
20324	203.230	1533.39307	1293.78040	2237.08862	
20325	203.240	1521.96106	1295.52954	2241.71338	
20326	203.250	1508.57678	1296.29272	2246.09326	
20327	203.260	1492.64099	1297.37476	2250.83594	
20328	203.270	1481.28625	1298.68665	2255.21582	
20329	203.280	1467.49976	1299.45947	2259.87329	
20330	203.290	1451.04846	1299.51868	2264.39185	
20331	203.300	1439.29407	1300.44470	2269.06299	
20332	203.310	1425.67004	1300.26050	2273.37231	
20333	203.320	1408.55530	1299.99927	2277.72070	
20334	203.330	1396.81201	1299.69995	2282.16992	
20335	203.340	1383.83801	1299.76123	2286.88940	
20336	203.350	1366.62634	1298.82312	2291.49780	
20337	203.360	1354.64404	1298.13708	2295.87964	
20338	203.370	1341.64673	1297.48596	2300.62671	
20339	203.380	1324.28174	1296.01758	2304.23071	
20340	203.390	1311.62915	1295.10522	2309.04541	
20341	203.400	1297.60974	1293.40344	2313.48535	
20342	203.410	1282.15320	1291.75232	2317.56714	
20343	203.420	1268.97131	1290.11267	2321.39795	
20344	203.430	1252.87500	1287.89600	2325.89063	
20345	203.440	1240.48914	1285.87378	2329.79712	
20346	203.450	1227.69592	1284.09045	2333.97070	
20347	203.460	1210.75317	1280.93250	2338.02368	
20348	203.470	1198.96631	1278.63672	2342.00220	
20349	203.480	1186.48328	1275.95947	2346.70874	
20350	203.490	1169.55310	1272.75745	2350.31641	
20351	203.500	1157.40295	1269.93262	2354.66919	
20352	203.510	1144.51367	1266.64966	2358.66284	
20353	203.520	1130.31104	1263.09680	2362.73145	
20354	203.530	1118.21948	1259.62048	2366.58057	
20355	203.540	1105.25317	1256.17261	2370.53906	
20356	203.550	1092.28601	1252.39868	2374.63501	
20357	203.560	1080.59985	1248.57617	2379.28564	
20358	203.570	1065.65894	1244.17188	2382.85278	
20359	203.580	1054.45654	1240.31848	2386.96362	
20360	203.590	1043.11108	1236.25403	2391.69727	
20361	203.600	1029.28186	1231.08911	2395.30859	
20362	203.610	1018.39941	1226.61267	2399.55347	
20363	203.620	1007.58978	1222.54041	2404.04883	
20364	203.630	994.80652	1217.49768	2408.20020	
20365	203.640	982.62372	1212.13843	2411.61401	
20366	203.650	970.97638	1207.13928	2416.26611	
20367	203.660	960.06952	1201.91797	2420.70190	
20368	203.670	947.07458	1195.79346	2423.78442	
20369	203.680	936.62689	1191.08923	2428.46265	
20370	203.690	925.96185	1184.96436	2432.48291	
20371	203.700	912.38300	1179.08264	2435.84497	
20372	203.710	903.30054	1173.31775	2439.72974	
20373	203.720	893.46753	1167.83350	2444.38110	
20374	203.730	879.16559	1161.31750	2449.03271	
20375	203.740	869.64655	1155.74390	2453.38672	
20376	203.750	859.90790	1149.07129	2454.49072	
20377	203.760	845.19073	1142.30811	2459.17188	
20378	203.770	836.55603	1136.56592	2463.45093	
20379	203.780	825.34528	1130.18188	2467.01514	
20380	203.790	811.13202	1122.94458	2468.89941	
20381	203.800	802.80365	1116.96033	2473.56714	
20382	203.810	791.31970	1110.03772	2475.65088	
20383	203.820	778.01947	1102.94983	2478.49780	
20384	203.830	767.75403	1095.79688	2481.22876	
20385	203.840	757.24432	1089.87781	2484.97949	
20386	203.850	745.00531	1082.39807	2486.79688	
20387	203.860	733.04608	1075.59204	2488.88745	
20388	203.870	722.71423	1068.94189	2491.06592	
20389	203.880	711.39612	1061.88062	2493.40625	
20390	203.890	698.32147	1055.19690	2495.17993	
20391	203.900	687.74243	1048.72278	2496.85669	
20392	203.910	675.92126	1042.02539	2498.58618	
20393	203.920	663.98798	1035.42383	2500.67847	
20394	203.930	653.01984	1029.35425	2501.82202	
20395	203.940	641.27667	1022.92334	2502.81104	
20396	203.950	627.01324	1016.03198	2502.94995	
20397	203.960	616.50067	1009.85321	2503.59351	
20398	203.970	604.05920	1003.14105	2504.47241	
20399	203.980	589.95807	996.21320	2505.14673	
20400	203.990	580.02594	989.98267	2506.37207	
20401	204.000	568.00140	983.09094	2506.55518	
20402	204.010	553.55298	976.00323	2505.96924	
20403	204.020	543.58942	969.79822	2507.23584	
20404	204.030	532.06818	963.10309	2507.14575	
20405	204.040	517.57111	955.40955	2506.32813	
20406	204.050	508.53461	949.38123	2507.21680	
20407	204.060	498.43054	942.36401	2506.86060	
20408	204.070	483.05270	934.30493	2506.14355	
20409	204.080	474.20490	927.11664	2506.80566	
20410	204.090	464.32309	920.26410	2507.02832	
20411	204.100	450.84702	911.94171	2507.22827	
20412	204.110	440.13470	904.21143	2506.23486	
20413	204.120	430.75211	897.23730	2507.41772	
20414	204.130	420.35962	888.92877	2507.22168	
20415	204.140	407.45068	880.87976	2506.77319	
20416	204.150	399.37317	872.72443	2506.84692	
20417	204.160	390.22797	864.79889	2507.79272	
20418	204.170	378.73901	856.69263	2507.99683	
20419	204.180	369.46777	848.24182	2508.03882	
20420	204.190	361.10028	840.18835	2508.23657	
20421	204.200	351.68799	831.58173	2507.41406	
20422	204.210	340.51563	822.93457	2508.11035	
20423	204.220	330.98157	814.09021	2507.62793	
